<svg width="19" height="24" viewBox="0 0 19 24" fill="none" xmlns="http://www.w3.org/2000/svg">
<path d="M15.7804 12.5859C15.7546 9.72099 18.1262 8.32722 18.2346 8.26233C16.8915 6.30411 14.8097 6.03655 14.0782 6.01522C12.3297 5.83122 10.6337 7.06144 9.74307 7.06144C8.83463 7.06144 7.46307 6.033 5.98485 6.06322C4.08263 6.09255 2.30307 7.19388 1.32707 8.90411C-0.687148 12.3912 0.815074 17.5157 2.74485 20.3343C3.71019 21.7148 4.83818 23.2561 6.31463 23.2019C7.75907 23.1423 8.29863 22.281 10.0417 22.281C11.7689 22.281 12.2755 23.2019 13.7813 23.1672C15.3315 23.1423 16.3075 21.7805 17.2391 20.3877C18.3546 18.8054 18.8026 17.2472 18.8204 17.1672C18.784 17.1548 15.8097 16.0197 15.7804 12.5859Z" fill="white"/>
<path d="M12.936 4.16103C13.7129 3.18948 14.2444 1.8677 14.0969 0.526367C12.9724 0.576145 11.5662 1.30414 10.7564 2.25437C10.04 3.0917 9.39997 4.46414 9.56531 5.75481C10.8284 5.84903 12.1253 5.11748 12.936 4.16103Z" fill="white"/>
</svg>
